#!OML:ASF F:\twosubjects\two\Thursday\Session 1\Rory.ASF
:FULLY-SPECIFIED
:DEGREES
198
root 19.6649 18.7821 17.3074 0.802866 -25.0079 7.68291
lowerback 3.19251 -1.36378 -11.6357
upperback 1.3831 -2.19115 -2.62011
thorax -0.0162492 -1.15019 3.83936
lowerneck 0.20409 -14.5392 -15.0222
upperneck 9.86734 -21.819 19.8343
head 6.86317 -10.5697 6.82329
rclavicle 5.96354e-015 -2.3059e-014
rhumerus -50.9008 -32.1828 -51.8202
rradius 17.6188
rwrist 18.4921
rhand -4.33834 17.7073
rfingers 7.12502
rthumb 21.429 -11.1275
lclavicle 5.96354e-015 -2.3059e-014
lhumerus -44.9598 -10.3606 83.3246
lradius 107.431
lwrist -8.14755
lhand -13.7465 27.0511
lfingers 7.12502
lthumb 12.3735 56.6649
rfemur -23.0622 4.43297 9.71005
rtibia 57.7917
rfoot -13.0413 -11.7736
rtoes -10.051
lfemur -9.15263 2.1756 -26.754
ltibia 26.2756
lfoot -17.9191 3.74881
ltoes 2.39629
199
root 19.6431 18.767 17.425 0.792439 -24.8885 7.68402
lowerback 3.43462 -1.47539 -11.5808
upperback 1.31491 -2.37877 -2.57964
thorax -0.196242 -1.23146 3.86475
lowerneck 0.697772 -14.4619 -15.41
upperneck 9.4196 -21.7719 20.3845
head 6.74245 -10.5878 7.10551
rclavicle 7.7526e-015 3.02153e-014
rhumerus -52.3266 -33.275 -49.6395
rradius 17.0978
rwrist 19.2646
rhand -4.59587 18.7119
rfingers 7.12502
rthumb 21.1817 -10.151
lclavicle 7.7526e-015 3.02153e-014
lhumerus -44.8744 -10.303 83.1078
lradius 107.457
lwrist -8.45962
lhand -14.3072 26.9447
lfingers 7.12502
lthumb 11.8329 56.5904
rfemur -23.7897 4.44612 9.79807
rtibia 56.9408
rfoot -13.8212 -12.3582
rtoes -9.83108
lfemur -8.59795 2.14882 -26.7422
ltibia 26.1037
lfoot -18.1386 2.74133
ltoes 7.41011
200
root 19.6163 18.7739 17.5517 0.802411 -24.6881 8.50799
lowerback 3.35203 -1.57979 -12.3062
upperback 1.12691 -2.54789 -2.75111
thorax -0.29652 -1.30514 4.08763
lowerneck 0.740599 -14.4192 -15.2999
upperneck 9.26424 -21.6979 20.4256
head 6.66484 -10.5554 7.12035
rclavicle 1.72943e-014 1.74931e-014
rhumerus -53.5443 -33.5265 -48.2673
rradius 16.982
rwrist 19.4085
rhand -3.85003 18.3224
rfingers 7.12502
rthumb 21.898 -10.4584
lclavicle 1.72943e-014 1.74931e-014
lhumerus -44.8049 -10.4207 82.9448
lradius 107.45
lwrist -8.74231
lhand -14.6488 26.7086
lfingers 7.12502
lthumb 11.5035 56.373
rfemur -24.6695 4.20491 8.93936
rtibia 55.8883
rfoot -14.5749 -12.5375
rtoes -9.51592
lfemur -8.47475 2.39941 -27.6628
ltibia 25.9736
lfoot -18.1838 2.44973
ltoes 6.07081
201
root 19.5939 18.7745 17.6739 0.733122 -24.7455 9.71999
lowerback 3.01416 -1.75094 -13.4633
upperback 1.02735 -2.76767 -2.92346
thorax -0.127316 -1.42293 4.53054
lowerneck 0.390221 -14.3391 -15.365
upperneck 9.36229 -21.5539 20.3844
head 6.73131 -10.4635 7.11048
rclavicle -6.32135e-014 7.15625e-015
rhumerus -53.8869 -32.9951 -48.1017
rradius 17.1887
rwrist 18.3579
rhand -3.33287 17.3822
rfingers 7.12502
rthumb 22.3945 -11.3397
lclavicle -6.32135e-014 7.15625e-015
lhumerus -44.6257 -10.0992 82.6535
lradius 107.536
lwrist -8.69882
lhand -14.424 26.7637
lfingers 7.12502
lthumb 11.7202 56.4159
rfemur -25.7352 4.12537 7.63373
rtibia 54.7036
rfoot -15.0186 -12.3014
rtoes -10.023
lfemur -8.49309 2.4049 -29.007
ltibia 25.887
lfoot -18.129 2.81092
ltoes 1.8657
202
root 19.5574 18.7832 17.7827 1.0775 -25.0905 8.80144
lowerback 3.13634 -1.83323 -12.8556
upperback 1.09636 -2.86702 -2.60023
thorax -0.119254 -1.4739 4.54233
lowerneck 0.0258161 -14.3092 -15.4464
upperneck 9.51633 -21.5048 20.4254
head 6.84843 -10.4131 7.11293
rclavicle -3.26007e-014 -2.38542e-015
rhumerus -54.1787 -32.8334 -47.8394
rradius 17.2699
rwrist 17.6447
rhand -3.6299 16.6983
rfingers 7.12502
rthumb 22.1093 -12.0576
lclavicle -3.26007e-014 -2.38542e-015
lhumerus -44.456 -9.75641 82.2251
lradius 107.665
lwrist -8.45637
lhand -14.2407 26.993
lfingers 7.12502
lthumb 11.897 56.635
rfemur -26.3806 5.19808 8.68544
rtibia 53.2058
rfoot -15.1571 -12.55
rtoes -10.5648
lfemur -8.17251 2.3062 -28.0674
ltibia 25.9553
lfoot -18.0737 3.22996
ltoes -0.745895
